<?xml version="1.0" standalone="no"?>
<svg xmlns="http://www.w3.org/2000/svg" viewBox="0 0 166 64" width="166" height="64"><g fill="#701e1e" color="#701e1e" transform="translate(65.144 0) scale(0.35) "><svg width="100.0" height="94.541" x="0.0" y="0.0" viewBox="0 0 100 94.541"><path fill="currentColor" d="M99.584,34.77L50.543,0.175C50.38,0.06,50.19,0.005,50,0c-0.19,0.005-0.38,0.06-0.543,0.175L0.416,34.77  c-0.35,0.247-0.5,0.692-0.37,1.101s0.508,0.686,0.937,0.686h10.565V83.73H8.6c-0.543,0-0.983,0.439-0.983,0.982v1.966H2.703  c-0.543,0-0.983,0.439-0.983,0.982v5.897c0,0.543,0.44,0.982,0.983,0.982H50h47.298c0.543,0,0.982-0.439,0.982-0.982v-5.897  c0-0.543-0.439-0.982-0.982-0.982h-4.914v-1.966c0-0.543-0.44-0.982-0.983-0.982h-2.948V36.556h10.565  c0.428,0,0.807-0.277,0.937-0.686S99.934,35.017,99.584,34.77z M31.204,83.73h-8.845V36.556h8.845V83.73z M57.985,83.73H42.015  V36.556h15.971V83.73z M77.642,83.73h-8.846V36.556h8.846V83.73z"></path></svg></g><line x1="66.19399999999999" y1="39.089349999999996" x2="99.094" y2="39.089349999999996" stroke="#000000" stroke-linecap="round"></line><path fill="#000000" fill-rule="nonzero" d="M6.58 17.74L6.58 17.74Q7.78 17.74 8.70 17.09Q9.62 16.44 9.62 15.13Q9.62 13.82 8.63 13.13Q7.63 12.43 5.80 11.92Q3.96 11.40 3.13 11.02Q2.30 10.63 1.56 10.01L1.56 10.01Q0.07 8.76 0.07 6.14L0.07 6.14Q0.07 4.01 1.60 2.47Q3.12 0.94 5.76 0.94L5.76 0.94Q7.03 0.94 8.41 1.31Q9.79 1.68 10.13 1.68Q10.46 1.68 10.73 1.20L10.73 1.20L10.99 1.20L11.16 6.05L10.78 6.05Q9.62 3.96 8.36 2.70Q7.10 1.44 5.63 1.44Q4.15 1.44 3.34 2.12Q2.52 2.81 2.52 3.95Q2.52 5.09 3.49 5.70Q4.46 6.31 5.88 6.70Q7.30 7.08 7.74 7.22Q8.18 7.37 8.84 7.62Q9.50 7.87 9.92 8.15Q10.34 8.42 10.81 8.84Q11.28 9.26 11.54 9.77L11.54 9.77Q12.19 10.92 12.19 12.50L12.19 12.50Q12.19 15.10 10.57 16.67Q8.95 18.24 6.31 18.24L6.31 18.24Q4.94 18.24 3.18 17.88Q1.42 17.52 1.22 17.52L1.22 17.52Q0.89 17.52 0.58 18.24L0.58 18.24L0.24 18.24L0 12.53L0.41 12.53Q1.46 14.62 3.11 16.18Q4.75 17.74 6.58 17.74ZM21.17 13.27L21.17 13.27L21.17 11.23Q21.17 8.90 20.92 7.84Q20.66 6.77 19.75 6.77L19.75 6.77Q19.22 6.77 18.90 7.07Q18.58 7.37 18.43 8.06L18.43 8.06Q18.22 9.14 18.22 11.35L18.22 11.35L18.22 13.22Q18.22 15.84 18.37 16.37Q18.53 16.90 18.70 17.23L18.70 17.23Q18.96 17.81 19.73 17.81L19.73 17.81Q20.66 17.81 20.95 16.73L20.95 16.73Q21.17 15.96 21.17 13.27ZM19.68 18.24Q16.68 18.24 15.14 16.70Q13.61 15.17 13.61 12.30Q13.61 9.43 15.25 7.88Q16.90 6.34 19.87 6.34Q22.85 6.34 24.31 7.76Q25.78 9.19 25.78 12.12L25.78 12.12Q25.78 18.24 19.68 18.24L19.68 18.24ZM35.21 11.54Q35.21 9.07 34.97 8.22Q34.73 7.37 34.03 7.37Q33.34 7.37 32.78 8.23Q32.23 9.10 32.23 10.61L32.23 10.61L32.23 15.07Q32.23 16.10 32.65 16.82Q33.07 17.54 33.85 17.54Q34.63 17.54 34.92 16.49Q35.21 15.43 35.21 12.79L35.21 12.79L35.21 11.54ZM26.45 0L32.23 0L32.23 8.40Q33.14 6.34 35.35 6.34L35.35 6.34Q39.84 6.34 39.84 12.31L39.84 12.31Q39.84 15.36 38.60 16.80Q37.37 18.24 34.90 18.24L34.90 18.24Q33.65 18.24 32.99 17.86Q32.33 17.47 32.09 16.58L32.09 16.58L31.92 18L26.45 18L26.45 17.57L27.77 17.57L27.77 0.43L26.45 0.43L26.45 0ZM48.58 7.25L48.58 7.25Q47.69 7.25 47.02 8.40Q46.34 9.55 46.34 11.14L46.34 11.14L46.34 17.57L48.05 17.57L48.05 18L40.56 18L40.56 17.57L41.88 17.57L41.88 7.01L40.56 7.01L40.56 6.58L46.34 6.58L46.34 8.88Q46.66 7.66 47.54 7.00Q48.43 6.34 49.56 6.34Q50.69 6.34 51.40 6.97Q52.10 7.61 52.10 8.77Q52.10 9.94 51.58 10.56Q51.05 11.18 49.96 11.18Q48.86 11.18 48.35 10.46Q47.83 9.74 48.22 8.47L48.22 8.47L49.08 8.47Q49.68 7.25 48.58 7.25ZM58.63 18.24Q55.54 18.24 53.99 16.64Q52.44 15.05 52.44 12.20Q52.44 9.36 54.18 7.85Q55.92 6.34 58.61 6.34L58.61 6.34Q64.06 6.34 63.84 11.81L63.84 11.81L57.07 11.81L57.07 12.74Q57.07 15.10 57.67 16.30Q58.27 17.50 59.76 17.50L59.76 17.50Q62.54 17.50 63.41 14.52L63.41 14.52L63.84 14.59Q63.38 16.32 62.20 17.28Q61.01 18.24 58.63 18.24L58.63 18.24ZM57.10 10.15L57.10 11.33L59.57 11.33L59.57 10.15Q59.57 8.21 59.34 7.50Q59.11 6.79 58.43 6.79Q57.74 6.79 57.42 7.55Q57.10 8.30 57.10 10.15L57.10 10.15ZM84.26 1.66L82.94 1.66L82.94 18L79.58 18L71.35 2.47L71.35 17.54L72.67 17.54L72.67 18L69.38 18L69.38 17.54L70.70 17.54L70.70 1.66L69.38 1.66L69.38 1.20L76.01 1.20L82.30 13.25L82.30 1.66L80.98 1.66L80.98 1.20L84.26 1.20L84.26 1.66ZM92.62 13.27L92.62 13.27L92.62 11.23Q92.62 8.90 92.36 7.84Q92.11 6.77 91.20 6.77L91.20 6.77Q90.67 6.77 90.35 7.07Q90.02 7.37 89.88 8.06L89.88 8.06Q89.66 9.14 89.66 11.35L89.66 11.35L89.66 13.22Q89.66 15.84 89.82 16.37Q89.98 16.90 90.14 17.23L90.14 17.23Q90.41 17.81 91.18 17.81L91.18 17.81Q92.11 17.81 92.40 16.73L92.40 16.73Q92.62 15.96 92.62 13.27ZM91.13 18.24Q88.13 18.24 86.59 16.70Q85.06 15.17 85.06 12.30Q85.06 9.43 86.70 7.88Q88.34 6.34 91.32 6.34Q94.30 6.34 95.76 7.76Q97.22 9.19 97.22 12.12L97.22 12.12Q97.22 18.24 91.13 18.24L91.13 18.24ZM98.74 18.24L98.45 18.24L98.45 13.94L98.74 13.94Q99.36 16.03 100.42 16.87Q101.47 17.71 103.06 17.71L103.06 17.71Q105.50 17.71 105.50 16.15L105.50 16.15Q105.50 15.48 104.90 15.14L104.90 15.14Q103.97 14.62 102.50 14.33L102.50 14.33Q100.87 13.90 99.77 13.18L99.77 13.18Q98.45 12.31 98.45 10.44Q98.45 8.57 99.60 7.45Q100.75 6.34 102.67 6.34L102.67 6.34Q103.85 6.34 105.10 6.89L105.10 6.89Q105.55 7.08 105.79 7.08Q106.03 7.08 106.20 6.91Q106.37 6.74 106.61 6.29L106.61 6.29L106.87 6.29L106.87 9.96L106.58 9.96Q105.36 6.84 102.79 6.84L102.79 6.84Q101.66 6.84 101.11 7.24Q100.56 7.63 100.56 8.23L100.56 8.23Q100.56 8.59 100.73 8.80Q100.90 9 100.99 9.10Q101.09 9.19 101.30 9.30Q101.52 9.41 101.66 9.47Q101.81 9.53 102.11 9.62Q102.41 9.72 102.55 9.74L102.55 9.74Q104.18 10.15 104.90 10.45Q105.62 10.75 106.27 11.18L106.27 11.18Q107.59 12.10 107.59 14.12Q107.59 16.15 106.39 17.20Q105.19 18.24 103.10 18.24L103.10 18.24Q101.62 18.24 100.22 17.54L100.22 17.54Q99.94 17.35 99.77 17.35L99.77 17.35Q99.24 17.35 98.74 18.24L98.74 18.24ZM116.06 13.27L116.06 13.27L116.06 11.23Q116.06 8.90 115.81 7.84Q115.56 6.77 114.65 6.77L114.65 6.77Q114.12 6.77 113.80 7.07Q113.47 7.37 113.33 8.06L113.33 8.06Q113.11 9.14 113.11 11.35L113.11 11.35L113.11 13.22Q113.11 15.84 113.27 16.37Q113.42 16.90 113.59 17.23L113.59 17.23Q113.86 17.81 114.62 17.81L114.62 17.81Q115.56 17.81 115.85 16.73L115.85 16.73Q116.06 15.96 116.06 13.27ZM114.58 18.24Q111.58 18.24 110.04 16.70Q108.50 15.17 108.50 12.30Q108.50 9.43 110.15 7.88Q111.79 6.34 114.77 6.34Q117.74 6.34 119.21 7.76Q120.67 9.19 120.67 12.12L120.67 12.12Q120.67 18.24 114.58 18.24L114.58 18.24ZM122.54 14.57L122.54 14.57L122.54 7.01L121.22 7.01L121.22 6.58L122.54 6.58L122.54 3.48L127.01 2.38L127.01 6.58L130.13 6.58L130.13 7.01L127.01 7.01L127.01 15.10Q127.01 16.22 127.24 16.75Q127.46 17.28 128.18 17.28Q128.90 17.28 129.44 16.56Q129.98 15.84 130.15 14.59L130.15 14.59L130.56 14.64Q130.37 16.30 129.50 17.27Q128.64 18.24 126.65 18.24Q124.66 18.24 123.60 17.45Q122.54 16.66 122.54 14.57ZM138.82 7.25L138.82 7.25Q137.93 7.25 137.26 8.40Q136.58 9.55 136.58 11.14L136.58 11.14L136.58 17.57L138.29 17.57L138.29 18L130.80 18L130.80 17.57L132.12 17.57L132.12 7.01L130.80 7.01L130.80 6.58L136.58 6.58L136.58 8.88Q136.90 7.66 137.78 7.00Q138.67 6.34 139.80 6.34Q140.93 6.34 141.64 6.97Q142.34 7.61 142.34 8.77Q142.34 9.94 141.82 10.56Q141.29 11.18 140.20 11.18Q139.10 11.18 138.59 10.46Q138.07 9.74 138.46 8.47L138.46 8.47L139.32 8.47Q139.92 7.25 138.82 7.25ZM150.31 13.27L150.31 13.27L150.31 11.23Q150.31 8.90 150.06 7.84Q149.81 6.77 148.90 6.77L148.90 6.77Q148.37 6.77 148.04 7.07Q147.72 7.37 147.58 8.06L147.58 8.06Q147.36 9.14 147.36 11.35L147.36 11.35L147.36 13.22Q147.36 15.84 147.52 16.37Q147.67 16.90 147.84 17.23L147.84 17.23Q148.10 17.81 148.87 17.81L148.87 17.81Q149.81 17.81 150.10 16.73L150.10 16.73Q150.31 15.96 150.31 13.27ZM148.82 18.24Q145.82 18.24 144.29 16.70Q142.75 15.17 142.75 12.30Q142.75 9.43 144.40 7.88Q146.04 6.34 149.02 6.34Q151.99 6.34 153.46 7.76Q154.92 9.19 154.92 12.12L154.92 12.12Q154.92 18.24 148.82 18.24L148.82 18.24ZM156.43 18.24L156.14 18.24L156.14 13.94L156.43 13.94Q157.06 16.03 158.11 16.87Q159.17 17.71 160.75 17.71L160.75 17.71Q163.20 17.71 163.20 16.15L163.20 16.15Q163.20 15.48 162.60 15.14L162.60 15.14Q161.66 14.62 160.20 14.33L160.20 14.33Q158.57 13.90 157.46 13.18L157.46 13.18Q156.14 12.31 156.14 10.44Q156.14 8.57 157.30 7.45Q158.45 6.34 160.37 6.34L160.37 6.34Q161.54 6.34 162.79 6.89L162.79 6.89Q163.25 7.08 163.49 7.08Q163.73 7.08 163.90 6.91Q164.06 6.74 164.30 6.29L164.30 6.29L164.57 6.29L164.57 9.96L164.28 9.96Q163.06 6.84 160.49 6.84L160.49 6.84Q159.36 6.84 158.81 7.24Q158.26 7.63 158.26 8.23L158.26 8.23Q158.26 8.59 158.42 8.80Q158.59 9 158.69 9.10Q158.78 9.19 159.00 9.30Q159.22 9.41 159.36 9.47Q159.50 9.53 159.80 9.62Q160.10 9.72 160.25 9.74L160.25 9.74Q161.88 10.15 162.60 10.45Q163.32 10.75 163.97 11.18L163.97 11.18Q165.29 12.10 165.29 14.12Q165.29 16.15 164.09 17.20Q162.89 18.24 160.80 18.24L160.80 18.24Q159.31 18.24 157.92 17.54L157.92 17.54Q157.63 17.35 157.46 17.35L157.46 17.35Q156.94 17.35 156.43 18.24L156.43 18.24Z" transform="translate(0, 45.09)"></path></svg>